<?xml version="1.0" encoding="utf-8"?>
<!-- Generator: Adobe Illustrator 16.0.0, SVG Export Plug-In . SVG Version: 6.00 Build 0)  -->
<!DOCTYPE svg PUBLIC "-//W3C//DTD SVG 1.1//EN" "http://www.w3.org/Graphics/SVG/1.1/DTD/svg11.dtd">
<svg version="1.1" id="Layer_1" xmlns="http://www.w3.org/2000/svg" xmlns:xlink="http://www.w3.org/1999/xlink" x="0px" y="0px"
	 width="363.03px" height="84.5px" viewBox="0 0 363.03 84.5" enable-background="new 0 0 363.03 84.5" xml:space="preserve">
<text transform="matrix(1 0 0 1 92.0298 50.9297)" fill="#FFFFFF" font-family="'Mistral'" font-size="30">Annapolis Code and Coffee </text>
<rect x="6" y="7" fill="none" width="419.842" height="77.5"/>
<ellipse fill-rule="evenodd" clip-rule="evenodd" fill="none" stroke="#FFFFFF" stroke-width="2" stroke-miterlimit="10" cx="40.205" cy="18.929" rx="27.759" ry="2.951"/>
<g>
	<defs>
		<rect id="SVGID_1_" x="10.199" y="17.216" width="76.831" height="55.522"/>
	</defs>
	<clipPath id="SVGID_2_">
		<use xlink:href="#SVGID_1_"  overflow="visible"/>
	</clipPath>
	<path opacity="0.7" clip-path="url(#SVGID_2_)" fill="none" stroke="#FFFFFF" stroke-width="1.5" stroke-miterlimit="10" d="
		M67.963,65.822c-0.771,1.255-3.956,2.01-5.369,2.425c-5.312,1.551-17.32,2.52-21.998,2.486c-4.362-0.031-16.854-0.728-22.148-2.467
		c-1.41-0.462-4.49-1.542-5.215-2.838C7.276,54.79,12.84,16.657,12.84,16.657h55.124C67.963,16.657,74.391,55.347,67.963,65.822z"/>
</g>
<g>
	<path fill="none" stroke="#FFFFFF" stroke-width="2" stroke-miterlimit="10" d="M70.624,29.732l-0.239,0.001l0.481,2.671
		c0,0,6.775,2.435,7.133,6.359c0.358,3.923-6.789,7.862-6.789,7.862l-0.49,2.465l0.477-0.005c0,0,10.307-5.364,9.819-10.706
		C80.53,33.04,70.624,29.732,70.624,29.732z"/>
	<g>
		<g>
			<path fill="#FFFFFF" d="M14.9,60.999c-0.003,0-0.006-0.002-0.009-0.003c-0.197,0.035-0.395,0.068-0.593,0.103
				c0.003-0.102,0.006-0.204,0.01-0.306c0.248-0.041,0.495-0.083,0.742-0.126c0.113,0.035,0.226,0.068,0.34,0.102
				c-0.27,0.915-0.542,1.831-0.815,2.745c-0.133-0.038-0.265-0.078-0.397-0.117C14.419,62.597,14.66,61.798,14.9,60.999z"/>
			<path fill="#FFFFFF" d="M18.092,62.967c-0.241,0.941-0.766,1.365-1.448,1.183c-0.6-0.161-0.86-0.783-0.609-1.695
				c0.264-0.926,0.834-1.313,1.436-1.151C18.095,61.469,18.32,62.081,18.092,62.967z M16.442,62.571
				c-0.2,0.719-0.07,1.192,0.306,1.293c0.424,0.114,0.745-0.28,0.931-0.987c0.179-0.683,0.107-1.178-0.309-1.29
				C17.017,61.492,16.652,61.819,16.442,62.571z"/>
			<path fill="#FFFFFF" d="M20.491,63.545c-0.216,0.947-0.729,1.386-1.415,1.222c-0.604-0.145-0.882-0.758-0.657-1.677
				c0.239-0.933,0.798-1.336,1.404-1.191C20.452,62.048,20.693,62.653,20.491,63.545z M18.829,63.196
				c-0.181,0.722-0.038,1.192,0.342,1.283c0.427,0.103,0.737-0.301,0.903-1.014c0.161-0.687,0.076-1.18-0.344-1.28
				C19.375,62.102,19.019,62.438,18.829,63.196z"/>
			<path fill="#FFFFFF" d="M22.902,64.057c-0.189,0.954-0.689,1.405-1.379,1.261c-0.609-0.129-0.902-0.734-0.703-1.658
				c0.213-0.939,0.763-1.357,1.372-1.23C22.824,62.563,23.081,63.159,22.902,64.057z M21.232,63.754
				c-0.161,0.728-0.004,1.193,0.377,1.273c0.43,0.09,0.729-0.321,0.875-1.037c0.142-0.692,0.043-1.182-0.379-1.271
				C21.749,62.645,21.4,62.991,21.232,63.754z"/>
			<path fill="#FFFFFF" d="M24.377,63.276c-0.003-0.001-0.006-0.001-0.009-0.002c-0.192,0.056-0.385,0.112-0.578,0.167
				c-0.008-0.102-0.016-0.203-0.024-0.305c0.242-0.068,0.483-0.137,0.724-0.207c0.116,0.022,0.233,0.043,0.349,0.063
				c-0.168,0.939-0.338,1.879-0.509,2.818c-0.136-0.024-0.272-0.048-0.409-0.073C24.074,64.917,24.227,64.097,24.377,63.276z"/>
			<path fill="#FFFFFF" d="M27.767,64.882c-0.137,0.962-0.612,1.439-1.309,1.334c-0.615-0.095-0.942-0.684-0.793-1.617
				c0.161-0.949,0.686-1.397,1.301-1.304C27.606,63.393,27.896,63.976,27.767,64.882z M26.082,64.67
				c-0.121,0.735,0.062,1.193,0.448,1.252c0.434,0.066,0.709-0.361,0.815-1.085c0.103-0.697-0.022-1.182-0.448-1.247
				C26.536,63.534,26.208,63.9,26.082,64.67z"/>
			<path fill="#FFFFFF" d="M30.213,65.193c-0.11,0.966-0.571,1.457-1.271,1.369c-0.616-0.077-0.959-0.656-0.836-1.595
				c0.135-0.952,0.647-1.415,1.265-1.338C30.011,63.71,30.316,64.285,30.213,65.193z M28.524,65.028
				c-0.1,0.738,0.093,1.19,0.481,1.239c0.435,0.055,0.699-0.38,0.786-1.106c0.083-0.7-0.055-1.182-0.482-1.235
				C28.947,63.881,28.629,64.255,28.524,65.028z"/>
			<path fill="#FFFFFF" d="M32.668,65.438c-0.083,0.968-0.531,1.472-1.232,1.403c-0.619-0.061-0.978-0.63-0.88-1.571
				c0.108-0.956,0.607-1.433,1.227-1.371C32.426,63.961,32.746,64.527,32.668,65.438z M30.975,65.319
				c-0.08,0.741,0.126,1.188,0.516,1.226c0.437,0.043,0.689-0.399,0.755-1.127c0.064-0.702-0.088-1.18-0.517-1.221
				C31.367,64.161,31.058,64.544,30.975,65.319z"/>
			<path fill="#FFFFFF" d="M35.128,65.617c-0.057,0.97-0.488,1.485-1.192,1.437c-0.621-0.044-0.997-0.604-0.925-1.548
				c0.082-0.958,0.568-1.447,1.189-1.404C34.845,64.146,35.181,64.703,35.128,65.617z M33.433,65.544
				c-0.06,0.743,0.159,1.184,0.548,1.211c0.439,0.03,0.677-0.418,0.724-1.147c0.044-0.704-0.119-1.177-0.55-1.206
				C33.792,64.375,33.495,64.767,33.433,65.544z"/>
			<path fill="#FFFFFF" d="M36.482,64.643c-0.003,0-0.006,0-0.009,0c-0.183,0.081-0.366,0.163-0.551,0.243
				c-0.022-0.1-0.044-0.198-0.066-0.298c0.23-0.101,0.46-0.201,0.688-0.303c0.119,0.005,0.237,0.01,0.355,0.015
				c-0.038,0.953-0.077,1.907-0.115,2.86c-0.138-0.005-0.277-0.011-0.415-0.018C36.408,66.311,36.445,65.477,36.482,64.643z"/>
			<path fill="#FFFFFF" d="M38.919,64.717c-0.002,0-0.005,0-0.008,0c-0.181,0.088-0.362,0.174-0.543,0.26
				c-0.025-0.1-0.05-0.199-0.074-0.298c0.227-0.105,0.454-0.213,0.68-0.32c0.119,0.001,0.237,0.003,0.355,0.005
				c-0.012,0.954-0.024,1.908-0.036,2.863c-0.139-0.003-0.277-0.004-0.416-0.007C38.89,66.386,38.905,65.551,38.919,64.717z"/>
			<path fill="#FFFFFF" d="M41.358,64.726c-0.003,0-0.007,0-0.01,0c-0.178,0.091-0.356,0.183-0.535,0.273
				c-0.027-0.098-0.055-0.196-0.082-0.294c0.224-0.113,0.447-0.227,0.67-0.341c0.119-0.002,0.237-0.003,0.355-0.004
				c0.015,0.954,0.029,1.908,0.043,2.862c-0.138,0.002-0.277,0.004-0.416,0.006C41.375,66.394,41.367,65.56,41.358,64.726z"/>
			<path fill="#FFFFFF" d="M43.795,64.667c-0.003,0-0.006,0-0.009,0c-0.176,0.097-0.351,0.193-0.528,0.288
				c-0.03-0.098-0.061-0.195-0.091-0.293c0.221-0.117,0.441-0.237,0.661-0.356c0.118-0.005,0.236-0.01,0.355-0.015
				c0.041,0.953,0.082,1.907,0.123,2.86c-0.139,0.006-0.277,0.012-0.415,0.017C43.859,66.334,43.827,65.501,43.795,64.667z"/>
			<path fill="#FFFFFF" d="M47.455,65.499c0.078,0.97-0.28,1.539-0.982,1.585c-0.622,0.041-1.07-0.462-1.131-1.406
				c-0.051-0.961,0.364-1.512,0.985-1.553C46.972,64.082,47.381,64.588,47.455,65.499z M45.765,65.658
				c0.043,0.743,0.321,1.15,0.711,1.124c0.438-0.028,0.612-0.505,0.557-1.234c-0.053-0.703-0.28-1.149-0.709-1.121
				C45.959,64.451,45.719,64.879,45.765,65.658z"/>
			<path fill="#FFFFFF" d="M49.912,65.274c0.105,0.966-0.235,1.546-0.939,1.611c-0.619,0.058-1.083-0.433-1.168-1.375
				c-0.079-0.959,0.322-1.522,0.941-1.58C49.389,63.87,49.813,64.364,49.912,65.274z M48.227,65.479
				c0.064,0.742,0.354,1.142,0.741,1.105c0.437-0.041,0.599-0.522,0.523-1.25c-0.072-0.701-0.313-1.141-0.742-1.101
				C48.387,64.268,48.159,64.701,48.227,65.479z"/>
			<path fill="#FFFFFF" d="M52.36,64.983c0.132,0.963-0.193,1.551-0.893,1.636c-0.618,0.074-1.095-0.403-1.207-1.344
				c-0.104-0.955,0.278-1.528,0.897-1.604C51.8,63.593,52.236,64.077,52.36,64.983z M50.682,65.232
				c0.084,0.741,0.385,1.132,0.773,1.085c0.436-0.054,0.583-0.538,0.488-1.264c-0.091-0.699-0.344-1.132-0.772-1.079
				C50.81,64.018,50.592,64.458,50.682,65.232z"/>
			<path fill="#FFFFFF" d="M54.801,64.623c0.158,0.96-0.15,1.557-0.847,1.661c-0.616,0.092-1.106-0.373-1.244-1.31
				c-0.131-0.953,0.237-1.537,0.853-1.628C54.203,63.25,54.652,63.722,54.801,64.623z M53.13,64.92
				c0.105,0.738,0.417,1.121,0.803,1.063c0.435-0.064,0.569-0.554,0.454-1.276c-0.111-0.696-0.375-1.121-0.802-1.059
				C53.224,63.702,53.02,64.147,53.13,64.92z"/>
			<path fill="#FFFFFF" d="M57.23,64.198c0.185,0.955-0.106,1.56-0.801,1.684c-0.613,0.107-1.115-0.344-1.28-1.275
				c-0.157-0.949,0.195-1.542,0.808-1.652C56.595,62.841,57.057,63.301,57.23,64.198z M55.568,64.54
				c0.126,0.735,0.447,1.108,0.832,1.041c0.433-0.077,0.553-0.57,0.418-1.289c-0.13-0.693-0.406-1.11-0.829-1.035
				C55.629,63.319,55.437,63.771,55.568,64.54z"/>
			<path fill="#FFFFFF" d="M58.303,62.925c-0.003,0.001-0.006,0.002-0.009,0.002c-0.157,0.124-0.315,0.247-0.474,0.371
				c-0.045-0.093-0.091-0.184-0.136-0.274c0.199-0.152,0.397-0.307,0.594-0.462c0.116-0.023,0.232-0.047,0.348-0.071
				c0.197,0.934,0.395,1.867,0.594,2.802c-0.136,0.029-0.272,0.057-0.408,0.085C58.641,64.56,58.472,63.742,58.303,62.925z"/>
			<path fill="#FFFFFF" d="M60.685,62.404c-0.003,0-0.006,0.001-0.01,0.002c-0.153,0.128-0.308,0.256-0.462,0.383
				c-0.049-0.09-0.097-0.18-0.145-0.27c0.194-0.158,0.388-0.317,0.581-0.478c0.115-0.026,0.23-0.054,0.345-0.081
				c0.223,0.928,0.446,1.856,0.67,2.784c-0.135,0.032-0.27,0.064-0.405,0.095C61.067,64.028,60.876,63.217,60.685,62.404z"/>
			<path fill="#FFFFFF" d="M64.437,62.523c0.262,0.937,0.022,1.563-0.659,1.743c-0.602,0.159-1.141-0.249-1.381-1.165
				c-0.234-0.933,0.067-1.553,0.67-1.712C63.691,61.224,64.189,61.644,64.437,62.523z M62.808,63.002
				c0.186,0.721,0.537,1.068,0.915,0.968c0.424-0.111,0.503-0.613,0.31-1.318c-0.187-0.68-0.495-1.074-0.912-0.964
				C62.768,61.78,62.614,62.246,62.808,63.002z"/>
			<path fill="#FFFFFF" d="M66.804,61.834c0.289,0.929,0.065,1.562-0.611,1.761c-0.598,0.175-1.146-0.219-1.412-1.126
				c-0.26-0.928,0.025-1.556,0.623-1.731C66.024,60.556,66.534,60.96,66.804,61.834z M65.189,62.356
				c0.206,0.717,0.566,1.053,0.942,0.942c0.42-0.123,0.487-0.627,0.274-1.327c-0.206-0.674-0.524-1.06-0.938-0.938
				C65.117,61.136,64.974,61.606,65.189,62.356z"/>
		</g>
	</g>
	<g>
		<path fill-rule="evenodd" clip-rule="evenodd" fill="#FFFFFF" d="M58.116,51.38c-1.341-0.17-2.716-0.167-4.022-0.474
			c-0.977-0.23-1.939-0.462-2.937-0.565c-0.145-0.015-0.273-0.202-0.409-0.31c0.138-0.112,0.27-0.308,0.417-0.321
			c2.23-0.205,3.783-1.608,5.034-3.208c0.717-0.918,1.5-2.122,0.822-3.368c-0.041-0.049-0.077-0.104-0.112-0.163
			c-0.26,0.419-0.57,0.923-0.883,1.429c-0.012,0.018-0.037,0.034-0.039,0.051c-0.087,1.086-1.198,1.331-1.687,2.056
			c-0.716,1.059-1.71,1.587-2.872,1.825c-1.592,0.325-3.205,0.663-4.829,0.211c-0.011-0.058-0.021-0.117-0.031-0.175
			c0.16-0.04,0.341-0.15,0.473-0.108c0.876,0.289,1.608-0.008,2.27-0.541c0.631-0.509,1.301-0.746,2.136-0.847
			c1.86-0.225,3.159-1.329,3.89-3.068c0.077-0.183,0.097-0.394,0.197-0.559c0.777-1.28,0.433-2.482-0.206-3.684
			c-1.205-2.268-2.562-4.431-4.54-6.106c-0.634-0.537-1.458-0.853-2.198-1.262c-0.132-0.073-0.322-0.068-0.427-0.164
			c-1.534-1.395-3.452-1.859-5.397-2.263c-0.02-0.004-0.038-0.023-0.056-0.034h-2.642l-0.684,0.311
			c-0.011,0.061-0.023,0.123-0.034,0.182c0.324,0.138,0.637,0.315,0.973,0.403c0.957,0.252,1.941,0.414,2.882,0.715
			c0.959,0.307,2.001,0.581,2.385,1.868c-0.953-0.328-1.813-0.646-2.686-0.92c-0.605-0.189-1.224-0.369-1.85-0.459
			c-0.553-0.081-0.698,0.177-0.423,0.667c0.437,0.778,1.092,1.278,1.933,1.608c1.037,0.406,2.09,0.826,3.026,1.415
			c0.705,0.444,1.383,1.074,1.814,1.779c0.498,0.813,1.098,1.446,1.816,1.916c0.334,0.054,0.595,0.209,0.781,0.423
			c0.314,0.138,0.645,0.253,1,0.339c0.104,0.025,0.203,0.07,0.403,0.14c-0.227,0.295-0.446,0.535-0.612,0.805
			c-0.229,0.369-0.485,0.74-0.607,1.147c-0.231,0.759-1.166,1.082-1.821,0.609c-0.246-0.177-0.571-0.244-0.964-0.404
			c0.101-0.687-0.478,2.901-1.188,2.643c-0.226-0.082-0.522-3.965-0.839-3.934c-0.289-0.724-0.76-0.941-1.73-0.653
			c-0.082-0.132-0.167-0.272-0.302-0.489c-0.076,0.155-0.141,0.237-0.157,0.328c-0.08,0.477-0.43,0.512-0.726,0.329
			c-0.134-0.083-0.169-0.492-0.099-0.699c0.094-0.277,0.336-0.501,0.629-0.911c-0.551,0.47-0.955,0.814-1.423,1.213
			c-0.129-0.254-0.221-0.438-0.35-0.692c0.417-0.103,0.778-0.193,1.142-0.283c-0.509-0.399-1.007-0.215-1.38,0.065
			c-0.74,0.555-1.387,0.255-2.058-0.067c-0.276-0.132-0.539-0.293-0.836-0.457c-0.064,0.133-0.117,0.241-0.194,0.398
			c0.431,0.133,0.891,0.274,1.487,0.458c-0.584,0.212-0.949,0.877-1.528,0.21c0.063,0.145,0.127,0.289,0.19,0.434
			c-0.028,0.029-0.057,0.056-0.084,0.083c-0.253-0.186-0.506-0.372-0.801-0.588c-0.273,0.19-0.585,0.407-0.975,0.679
			c-0.852-0.203-1.165-0.096-1.58,0.617c-1.531-0.109-1.902,1.377-2.945,1.94c0.03,0.058,0.06,0.116,0.09,0.173
			c-0.379-0.08-0.76-0.16-1.138-0.24c-0.333-1.276-0.609-1.455-2.225-1.355c0.191-0.246,0.317-0.43,0.464-0.595
			c0.792-0.885,1.596-1.761,2.382-2.652c0.287-0.325,0.389-0.682,0.434-1.159c0.052-0.543,0.459-1.159,0.895-1.53
			c0.59-0.502,1.335-0.839,2.046-1.176c0.654-0.311,1.354-0.521,2.028-0.789c0.214-0.085,0.411-0.214,0.774-0.407
			c-0.979-0.564-1.918-0.508-3.011-0.583c1.228-0.67,2.33-0.35,3.599-0.206c-0.253-0.19-0.349-0.305-0.469-0.345
			c-1.857-0.62-3.66-0.72-5.347,0.52c-0.365,0.27-0.793,0.463-1.211,0.651c-2.079,0.942-3.547,2.49-4.483,4.544
			c-0.354,0.779-0.65,1.592-0.892,2.412c-0.117,0.398-0.047,0.85-0.058,1.279c-0.004,0.125,0.059,0.284,0.003,0.371
			c-0.52,0.808-0.229,1.602,0.112,2.331c0.824,1.765,2.22,2.794,4.185,3.003c0.104,0.012,0.259,0.003,0.303,0.066
			c0.68,0.967,1.751,1.058,2.872,1.245c-4.036,0.795-7.472-0.757-9.699-5.618c-0.264,0.79-0.313,1.429-0.022,2.18
			c0.606,1.56,1.74,2.605,3.01,3.598c1.176,0.92,2.525,1.229,3.932,1.282c1.249,0.048,2.504-0.112,3.757-0.149
			c0.222-0.006,0.45,0.138,0.675,0.213l-0.009,0.208c-0.168,0.053-0.334,0.148-0.501,0.148c-0.836,0.002-1.686,0.07-2.505-0.056
			c-1.517-0.233-3.054-0.187-4.451,0.29c-1.662,0.563-3.349,0.526-5.025,0.746c-0.6,0.079-1.188,0.236-1.781,0.358v0.134
			c3.055,0.705,6.08,0.631,9.17-0.435c-0.117,0.478-0.148,0.853-0.624,1.011c-0.563,0.188-1.133,0.373-1.667,0.626
			c-1.048,0.496-2.058,1.037-2.677,2.109c-0.22,0.381-0.658,0.63-0.92,0.995c-0.206,0.288-0.292,0.66-0.305,1.076
			c0.123-0.104,0.234-0.222,0.368-0.308c0.581-0.375,1.163-0.751,1.755-1.106c0.599-0.36,1.213-0.692,1.817-1.042
			c0.694-0.404,1.363-0.862,2.088-1.197c0.26-0.12,0.654,0.049,0.986,0.087c0.02,0.056,0.041,0.112,0.061,0.168
			c-0.079,0.04-0.158,0.084-0.238,0.124c-1.099,0.525-1.282,1.727-1.913,2.599c-0.072,0.099-0.097,0.248-0.102,0.377
			c-0.03,0.733-0.056,1.469-0.068,2.202c-0.013,0.81,0.423,1.393,0.897,1.882c0.094-0.433,0.197-0.851,0.273-1.276
			c0.045-0.258,0.082-0.526,0.055-0.783c-0.055-0.527,0.07-0.866,0.521-1.257c0.421-0.362,0.566-1.049,0.824-1.597
			c0.305-0.65,0.708-1.207,1.412-1.465c0.488-0.18,0.985-0.34,1.484-0.488c0.567-0.171,1.13-0.389,1.712-0.461
			c1.307-0.162,1.732-0.38,2.467-1.479c0.75,0.064,1.495,0.152,2.285,0.067c0.693-0.076,1.454,0.083,2.191,0.067
			c0.166-0.005,0.382,0.188,0.499,0.348c0.514,0.688,1.189,0.95,2.035,1.042c0.816,0.088,1.61,0.381,2.415,0.578
			c0.309,0.077,0.631,0.117,0.932,0.217c0.186,0.061,0.407,0.164,0.502,0.316c0.347,0.557,0.618,1.164,0.978,1.71
			c0.378,0.573,0.828,1.099,1.316,1.738c0.048,0.755,0.108,1.684,0.178,2.762c0.572-0.671,1.111-1.203,0.991-2.023
			c-0.116-0.798-0.274-1.594-0.467-2.378c-0.313-1.27-0.904-2.361-2.299-2.988c1.541-0.259,1.554-0.16,2.593,0.557
			c1.097,0.754,2.326,1.315,3.475,2c0.5,0.297,0.94,0.69,1.596,1.179c-0.198-0.514-0.28-0.894-0.474-1.205
			c-0.597-0.95-1.458-1.606-2.351-2.29c-1.029-0.786-2.111-1.302-3.324-1.603c-0.087-0.75-0.022-0.811,0.571-0.64
			c2.604,0.749,5.23,0.952,7.89,0.302c0.084-0.021,0.174-0.018,0.293-0.166C59.097,51.619,58.614,51.443,58.116,51.38z
			 M44.694,50.027c0.207-0.159,0.465-0.357,0.767-0.589c0.558,0.53,1.223,0.441,1.919,0.407c0.878-0.042,1.765,0.057,2.644,0.144
			C48.24,50.465,46.453,50.466,44.694,50.027z"/>
	</g>
	<rect x="8.253" y="20.376" fill-rule="evenodd" clip-rule="evenodd" fill="none" width="78.667" height="57.759"/>
	<g>
		<defs>
			<rect id="SVGID_3_" x="10.199" y="18.059" width="76.831" height="55.522"/>
		</defs>
		<clipPath id="SVGID_4_">
			<use xlink:href="#SVGID_3_"  overflow="visible"/>
		</clipPath>
		<path opacity="0.7" clip-path="url(#SVGID_4_)" fill="none" stroke="#FFFFFF" stroke-width="1.5" stroke-miterlimit="10" d="
			M67.963,66.665c-0.771,1.255-3.955,2.01-5.369,2.425c-5.313,1.551-17.32,2.52-21.998,2.486
			c-4.362-0.031-16.854-0.728-22.148-2.467c-1.41-0.462-4.49-1.542-5.215-2.838C7.276,55.633,12.84,17.5,12.84,17.5h55.124
			C67.963,17.5,74.391,56.189,67.963,66.665z"/>
	</g>
</g>
</svg>
